<svg xmlns="http://www.w3.org/2000/svg" xmlns:xlink="http://www.w3.org/1999/xlink" contentstyletype="text/css" height="522px" preserveAspectRatio="none" style="width: 789px; height: 522px; background: rgb(255, 255, 255); max-width: none; display: block;" version="1.1" viewBox="0 0 789 522" width="789px" zoomAndPan="magnify"><defs/><g><!--cluster FlyBird ????--><g id="cluster_FlyBird 游戏系统"><rect fill="#FDFEFE" height="509" rx="2.5" ry="2.5" style="stroke:#95A5A6;stroke-width:1.0;" width="702.92" x="81" y="7"/><text fill="#7F8C8D" font-family="Microsoft YaHei" font-size="14" font-weight="bold" lengthAdjust="spacing" textLength="114" x="375.46" y="21.9951">FlyBird 游戏系统</text></g><g id="elem_UC1"><ellipse cx="182.2178" cy="58.9996" fill="#E8F8F5" rx="72.2478" ry="16.8496" style="stroke:#1ABC9C;stroke-width:0.5;"/><text fill="#2C3E50" font-family="Microsoft YaHei" font-size="13" lengthAdjust="spacing" textLength="104" x="130.2178" y="61.5001">UC-001 启动游戏</text></g><g id="elem_UC2"><ellipse cx="182.2208" cy="130.0042" fill="#E8F8F5" rx="85.2208" ry="19.4442" style="stroke:#1ABC9C;stroke-width:0.5;"/><text fill="#2C3E50" font-family="Microsoft YaHei" font-size="13" lengthAdjust="spacing" textLength="134" x="115.2208" y="132.5047">UC-002 选择/上传皮肤</text></g><g id="elem_UC3"><ellipse cx="182.2178" cy="200.9996" fill="#E8F8F5" rx="72.2478" ry="16.8496" style="stroke:#1ABC9C;stroke-width:0.5;"/><text fill="#2C3E50" font-family="Microsoft YaHei" font-size="13" lengthAdjust="spacing" textLength="104" x="130.2178" y="203.5001">UC-003 开始游戏</text></g><g id="elem_UC4"><ellipse cx="182.2204" cy="272.0001" fill="#E8F8F5" rx="83.4504" ry="19.0901" style="stroke:#1ABC9C;stroke-width:0.5;"/><text fill="#2C3E50" font-family="Microsoft YaHei" font-size="13" lengthAdjust="spacing" textLength="130" x="117.2204" y="274.5006">UC-004 控制小鸟跳跃</text></g><g id="elem_UC5"><ellipse cx="479.681" cy="271.9982" fill="#E8F8F5" rx="89.241" ry="20.2482" style="stroke:#1ABC9C;stroke-width:0.5;"/><text fill="#2C3E50" font-family="Microsoft YaHei" font-size="13" lengthAdjust="spacing" textLength="143" x="408.181" y="274.4987">UC-005 判定得分与碰撞</text></g><g id="elem_UC6"><ellipse cx="182.2178" cy="342.9996" fill="#E8F8F5" rx="72.2478" ry="16.8496" style="stroke:#1ABC9C;stroke-width:0.5;"/><text fill="#2C3E50" font-family="Microsoft YaHei" font-size="13" lengthAdjust="spacing" textLength="104" x="130.2178" y="345.5001">UC-006 重新开始</text></g><g id="elem_UC7"><ellipse cx="182.2164" cy="412.9953" fill="#E8F8F5" rx="77.7764" ry="17.9553" style="stroke:#1ABC9C;stroke-width:0.5;"/><text fill="#2C3E50" font-family="Microsoft YaHei" font-size="13" lengthAdjust="spacing" textLength="117" x="123.7164" y="415.4958">UC-007 返回主菜单</text></g><g id="elem_UC8"><ellipse cx="182.2178" cy="482.9996" fill="#E8F8F5" rx="72.2478" ry="16.8496" style="stroke:#1ABC9C;stroke-width:0.5;"/><text fill="#2C3E50" font-family="Microsoft YaHei" font-size="13" lengthAdjust="spacing" textLength="104" x="130.2178" y="485.5001">UC-008 退出游戏</text></g><g id="elem_GMN20"><path d="M629.92,244.3 L629.92,268 L569.36,272 L629.92,276 L629.92,299.6984 A0,0 0 0 0 629.92,299.6984 L767.92,299.6984 A0,0 0 0 0 767.92,299.6984 L767.92,254.3 L757.92,244.3 L629.92,244.3 A0,0 0 0 0 629.92,244.3 " fill="#FEFFDD" style="stroke:#181818;stroke-width:0.5;"/><path d="M757.92,244.3 L757.92,254.3 L767.92,254.3 L757.92,244.3 " fill="#FEFFDD" style="stroke:#181818;stroke-width:0.5;"/><text fill="#000000" font-family="Microsoft YaHei" font-size="13" font-weight="bold" lengthAdjust="spacing" textLength="78" x="635.92" y="261.3669">系统自动执行</text><text fill="#000000" font-family="Microsoft YaHei" font-size="13" lengthAdjust="spacing" textLength="78" x="635.92" y="276.4997">检测坐标关系</text><text fill="#000000" font-family="Microsoft YaHei" font-size="13" lengthAdjust="spacing" textLength="117" x="635.92" y="291.6325">更新分数或结束游戏</text></g><!--entity Player--><g id="elem_Player"><ellipse cx="20" cy="242.35" fill="#ECF0F1" rx="8" ry="8" style="stroke:#2C3E50;stroke-width:0.5;"/><path d="M20,250.35 L20,277.35 M7,258.35 L33,258.35 M20,277.35 L7,292.35 M20,277.35 L33,292.35 " fill="none" style="stroke:#2C3E50;stroke-width:0.5;"/><text fill="#000000" font-family="Microsoft YaHei" font-size="14" lengthAdjust="spacing" textLength="28" x="6" y="306.8451">玩家</text></g><!--link Player to UC1--><g id="link_Player_UC1"><path d="M21.97,233.59 C25.05,193.34 35.99,130.82 73,93 C85.33,80.4 102.26,72.46 119.08,67.45 " fill="none" id="Player-UC1" style="stroke:#2C3E50;stroke-width:1.0;"/></g><!--link Player to UC2--><g id="link_Player_UC2"><path d="M31.94,233.41 C40.02,211.25 53.12,184.44 73,167 C85.46,156.07 101.31,148.33 117.01,142.86 " fill="none" id="Player-UC2" style="stroke:#2C3E50;stroke-width:1.0;"/></g><!--link Player to UC3--><g id="link_Player_UC3"><path d="M34.37,260.69 C44.45,252.62 58.91,242 73,235 C91.16,225.97 112.23,218.7 130.92,213.24 " fill="none" id="Player-UC3" style="stroke:#2C3E50;stroke-width:1.0;"/></g><!--link Player to UC4--><g id="link_Player_UC4"><path d="M34.38,272 C48.98,272 73.59,272 98.54,272 " fill="none" id="Player-UC4" style="stroke:#2C3E50;stroke-width:1.0;"/></g><!--link Player to UC6--><g id="link_Player_UC6"><path d="M34.37,283.31 C44.45,291.38 58.91,302 73,309 C91.16,318.03 112.23,325.3 130.92,330.76 " fill="none" id="Player-UC6" style="stroke:#2C3E50;stroke-width:1.0;"/></g><!--link Player to UC7--><g id="link_Player_UC7"><path d="M31.8,310.4 C39.85,332.63 52.97,359.57 73,377 C86.29,388.57 103.43,396.44 120.12,401.8 " fill="none" id="Player-UC7" style="stroke:#2C3E50;stroke-width:1.0;"/></g><!--link Player to UC8--><g id="link_Player_UC8"><path d="M22.28,310.45 C25.65,350 36.86,410.93 73,448 C85.54,460.87 102.84,469.01 119.93,474.16 " fill="none" id="Player-UC8" style="stroke:#2C3E50;stroke-width:1.0;"/></g><!--link UC4 to UC5--><g id="link_UC4_UC5"><path d="M265.92,272 C302.77,272 346.37,272 384.48,272 " fill="none" id="UC4-to-UC5" style="stroke:#2C3E50;stroke-width:1.0;stroke-dasharray:7.0,7.0;"/><polygon fill="#2C3E50" points="389.06,272,380.06,268,384.06,272,380.06,276,389.06,272" style="stroke:#2C3E50;stroke-width:1.0;"/><text fill="#000000" font-family="Microsoft YaHei" font-size="13" lengthAdjust="spacing" textLength="61" x="298.44" y="268.0669">«include»</text></g><!--SRC=[TLHTJzfW5BxlhtZ3Bb0JdNpZOamKQNQpPOdnOfSThTXOMrDAZ5kMCDq4H46dei7FgGdg1R3uLGJnp_HzMwxy2tjfAuBjUjVdFEUSvppdj4wWbHhgGmdAI_1l0kMhS7s3u9Wf2KW24Ddej0HeLcGY4Ylm1E44QYCBL_D63kX1wH-mUeM1vcaM7TTxYTWCoyzH8ZKBvgZ831Lb9gG5ZW6j0XGVvPWEGcoQeeLvbe-2AOgBTKPePegASn8fyD97QfO1ZWziH1HY0XRrcNhFi8uEBXMH115y8m1-nWIHPiIGm67aZJla2Vi63HnBYOf2dAVDM3X43f8kudj7dNYCYL0nvhcI9ID81acVjOjhT2mq5DBnKL4KvgtDMrFOenFiLmQuF5qosaRzJmWvJeR9i5N8a6_KD-f_tJ501aF1yLSTlI_l-dA-21oDHH26bGurUm5Bjmv0nS0dZbfWH89uKUKWkOKnLgG1acMKogbNDRLsvC1YzPfE04i5fPfMjywLHaQ7ddrrJ8Rw1mTT0AwNuSgvaQttc0ovR8Xkq4oaKURYhIAlAFLZjL3I5izCljk6xm6mde35J5TXZmtH2r2s25Eti99hoaVQtPLsjsJIlJPq7u2fCpmKREp0rB8YPzMJ2lfzQ6RuR3Bye9bSG_cAeSSa-cs80Q0zRi6zGqMkQRbzkBPjSWCst22s8m6JzrtZ1PzDDpRM4gVxhXP-mbzNU3LwsDWXwEzlEzs9k2s8nu9uBOZVWWGio8iwNPHIpJHthhkbEO5MlaQxsQTwmTRbPg80PLcfNpSBEMDoxN5F-xEAKdbZPBIvfZpiQybBV58mjw5k7UbriMGmC33IMX1u1uQ7MJx2nMbcP4IFcgsRYPhMs50Q1zfDtj04Uc2kZC_kgRuAJmvX_TwWe4Inryp1xfY5lRYm8GasBjLikKrmcmHFYx1LXRbTU9RNYek66xmWCUPVLPXg7n00VNt6bsICWj95F6LVdnb4fmbqau47w-WusU4U3knTjmujjOosAorFQfleuCXGfJCOdjOxue_x7m00]--></g></svg>